<?xml version="1.0" standalone="no"?><!DOCTYPE svg PUBLIC "-//W3C//DTD SVG 1.1//EN" "http://www.w3.org/Graphics/SVG/1.1/DTD/svg11.dtd"><svg t="1664022601299" class="icon" viewBox="0 0 1024 1024" version="1.1" xmlns="http://www.w3.org/2000/svg" p-id="11644" xmlns:xlink="http://www.w3.org/1999/xlink" width="200" height="200"><path d="M524 108.8C524 64 448 27.2 354.4 27.2S184.8 64 184.8 108.8c0 9.6 4 19.2 10.4 28-55.2 11.2-94.4 37.6-92 65.6 0.8 12.8 12 24.8 28.8 32.8-41.6 16.8-67.2 42.4-63.2 65.6 3.2 18.4 24 31.2 53.6 36.8-22.4 17.6-35.2 36.8-30.4 53.6 8.8 31.2 70.4 42.4 138.4 24s116-58.4 108-89.6c-4-13.6-17.6-24-38.4-28.8 14.4-12.8 22.4-26.4 20-40-1.6-8.8-7.2-16-16-22.4 28-11.2 47.2-26.4 52-43.2 92.8 0 168-36.8 168-82.4z" fill="#AC1F24" p-id="11645"></path><path d="M165.6 444c-49.6 0-86.4-16.8-94.4-48-4.8-16.8 0-33.6 12-50.4C64 336 51.2 321.6 48 304c-4.8-26.4 12-52 45.6-72.8-8-9.6-10.4-19.2-11.2-27.2-3.2-33.6 29.6-64 84-80.8-0.8-4.8-1.6-9.6-1.6-14.4C164.8 50.4 246.4 6.4 354.4 6.4 462.4 7.2 544 51.2 544 108.8c0 56-75.2 98.4-176.8 101.6-7.2 11.2-18.4 21.6-32.8 30.4 1.6 4 3.2 8 4 12 2.4 12 0 24-7.2 35.2 12.8 8 21.6 19.2 24.8 32 6.4 23.2-4.8 48-32 70.4-22.4 18.4-54.4 34.4-90.4 44-24 6.4-47.2 9.6-68 9.6zM354.4 47.2c-85.6 0-149.6 32.8-149.6 62.4 0 4.8 2.4 10.4 6.4 16l19.2 25.6-31.2 6.4c-50.4 10.4-77.6 32.8-76 44 0.8 5.6 7.2 11.2 17.6 16.8l39.2 20-40.8 16.8c-37.6 15.2-52.8 34.4-51.2 43.2 0.8 6.4 13.6 16 37.6 20.8l44 8.8-36 27.2c-18.4 13.6-24.8 26.4-23.2 32.8 3.2 12.8 46.4 28 113.6 9.6 29.6-8 56.8-20.8 75.2-36 16-13.6 20-24 18.4-29.6-1.6-5.6-10.4-11.2-24-14.4L256 306.4l28.8-25.6c8.8-8 14.4-16 13.6-21.6-0.8-4-4.8-7.2-7.2-9.6l-29.6-21.6 34.4-13.6c26.4-10.4 38.4-23.2 40.8-30.4l4-14.4h14.4C440 171.2 504 138.4 504 108.8c0-28.8-64-61.6-149.6-61.6z" p-id="11646"></path><path d="M746.4 187.2l119.2-97.6-8.8 124.8 93.6 34.4-101.6 84.8z" fill="#F18C1A" p-id="11647"></path><path d="M844.8 363.2L720 184l168.8-139.2-11.2 156 112 41.6-144.8 120.8z m-71.2-172l78.4 113.6 58.4-48.8-75.2-28 6.4-92.8-68 56z" p-id="11648"></path><path d="M943.2 833.6c-12-37.6-32-68-54.4-85.6V511.2c0-237.6-163.2-430.4-364-430.4C323.2 81.6 160 273.6 160 511.2v213.6c-28.8 13.6-57.6 49.6-73.6 98.4-24 72-10.4 143.2 29.6 159.2 35.2 14.4 79.2-19.2 105.6-76.8 12 49.6 39.2 84.8 71.2 84.8 21.6 0 41.6-16 55.2-41.6 14.4 25.6 33.6 41.6 55.2 41.6 24.8 0 46.4-20.8 60.8-52.8 14.4 32 36 52.8 60.8 52.8 24 0 45.6-20 60-52 13.6 37.6 37.6 62.4 64.8 62.4 24 0 44.8-19.2 59.2-49.6 14.4 30.4 35.2 49.6 59.2 49.6s45.6-20 60-51.2c25.6 36 59.2 54.4 86.4 43.2 39.2-16 52.8-87.2 28.8-159.2z" fill="#F5CD1E" p-id="11649"></path><path d="M767.2 1021.6c-22.4 0-42.4-11.2-59.2-32-16.8 20.8-36.8 32-59.2 32-25.6 0-48.8-15.2-66.4-41.6-16 20-36.8 30.4-58.4 30.4-22.4 0-44-12-60.8-33.6-16.8 21.6-37.6 33.6-60.8 33.6-20 0-39.2-9.6-55.2-27.2-16 17.6-35.2 27.2-55.2 27.2-30.4 0-57.6-21.6-75.2-57.6-31.2 43.2-72.8 62.4-108.8 48-50.4-20-68.8-101.6-40.8-184 15.2-46.4 41.6-84 72.8-104V511.2c0-248 172.8-450.4 384-450.4s384 201.6 384 450.4v227.2c22.4 21.6 41.6 52.8 53.6 88.8 27.2 83.2 9.6 164-40.8 184-28.8 12-62.4 1.6-90.4-27.2-17.6 24-39.2 37.6-63.2 37.6z m-77.6-78.4c7.2-15.2 28.8-15.2 36 0 11.2 24 26.4 38.4 40.8 38.4 15.2 0 30.4-14.4 41.6-39.2l3.2-6.4c4.8-11.2 20.8-12.8 27.2-2.4l4 5.6c20.8 28.8 45.6 43.2 62.4 36 26.4-10.4 40-68 18.4-134.4-10.4-32-28-60-48-76.8l-7.2-6.4V511.2c0-226.4-154.4-410.4-344-410.4s-344 184-344 410.4v225.6l-11.2 5.6c-25.6 12-49.6 44.8-63.2 86.4-21.6 66.4-8 124 18.4 134.4 23.2 9.6 58.4-20 80-66.4 8-17.6 33.6-14.4 37.6 4 9.6 40.8 31.2 69.6 52 69.6 12.8 0 26.4-11.2 37.6-31.2l10.4-19.2c3.2-5.6 11.2-5.6 14.4 0l10.4 19.2c11.2 20 24.8 31.2 37.6 31.2 15.2 0 31.2-15.2 42.4-40.8 7.2-16 29.6-16 36.8 0 11.2 25.6 27.2 40.8 42.4 40.8s30.4-15.2 41.6-40c7.2-16 31.2-15.2 36.8 1.6 11.2 30.4 28.8 49.6 45.6 49.6 13.6 0 29.6-14.4 40-38.4z" p-id="11650"></path><path d="M648 356.8m-120 0a120 120 0 1 0 240 0 120 120 0 1 0-240 0Z" fill="#FFFFFF" p-id="11651"></path><path d="M648 496.8c-76.8 0-140-63.2-140-140S571.2 216.8 648 216.8 788 280 788 356.8 725.6 496.8 648 496.8z m0-240c-55.2 0-100 44.8-100 100S593.6 456.8 648 456.8s100-44.8 100-100S703.2 256.8 648 256.8z" p-id="11652"></path><path d="M676 344m-80 0a80 80 0 1 0 160 0 80 80 0 1 0-160 0Z" p-id="11653"></path></svg>